<svg xmlns="http://www.w3.org/2000/svg" xmlns:xlink="http://www.w3.org/1999/xlink" width="1168" height="392" fill="none" xmlns:v="https://vecta.io/nano"><style><![CDATA[.B{stroke-width:2}.C{fill:#fff}.D{stroke:#717171}.E{stroke:#47708b}.F{stroke:#c72c48}.G{stroke-width:2.5}.H{stroke-linecap:round}]]></style><g class="G"><path d="M182 292h45.233a1 1 0 0 0 .498-.133L314.5 242" class="E"/><path d="M182.5 116.5h45.73a1.01 1.01 0 0 1 .503.135L314.5 166.5" class="F"/><path d="M445 167l85.764-50.86a1 1 0 0 1 .51-.14H579.5" class="E"/><path d="M445 241.5l85.767 49.864a1 1 0 0 0 .503.136H580" class="F"/><path d="M639.5 108H669a9 9 0 0 0 9-9V75.5a9 9 0 0 1 9-9h29.5" class="E"/><path d="M637 124h32a9 9 0 0 1 9 9v32.5a9 9 0 0 0 9 9h30" class="F"/><path d="M638 116.5h78.5m-77 163.5H669a9 9 0 0 0 9-9v-23.5a9 9 0 0 1 9-9h29.5" class="E"/><path d="M637 296h32a9 9 0 0 1 9 9v32.5a9 9 0 0 0 9 9h30m-79-58h78.5m-334.5-8v48" class="F"/></g><g class="D"><path d="M423 341c0 7.18-18.58 13-41.5 13s-41.5-5.82-41.5-13m83 0c0-7.18-18.58-13-41.5-13s-41.5 5.82-41.5 13m83 0v37.372c0 1.33-.652 2.583-1.792 3.269-22.632 13.621-63.527 9.881-79.531-.014-1.083-.67-1.677-1.88-1.677-3.154V341" class="B"/><circle cx="379.5" cy="205.5" r="74.25" class="C G"/></g><path d="M362.493 198.254h5.265v14.488h-5.265v-14.488zm-6.381.2l-10.688 6.082a.51.51 0 0 1-.247.065.51.51 0 0 1-.247-.065l-10.688-6.082c-.235-.132-.497-.201-.763-.2h-.014a1.34 1.34 0 0 0-.997.363 1.51 1.51 0 0 0-.468 1.002v13.106h5.26v-6.238c.011-.094.043-.183.094-.26a.54.54 0 0 1 .199-.181.5.5 0 0 1 .257-.057c.089.004.175.031.251.08l5.989 3.413a2.01 2.01 0 0 0 .963.258c.335.003.666-.08.966-.24l6.32-3.455c.076-.046.162-.072.25-.075s.175.018.254.06.146.104.196.18a.58.58 0 0 1 .092.258v6.257h5.261v-13.106c-.026-.386-.194-.745-.468-1.001a1.34 1.34 0 0 0-.995-.364h-.014c-.266-.001-.528.068-.763.2h0zm37.9-.2h-5.34v6.594c-.009.091-.04.178-.088.254s-.114.137-.19.18a.51.51 0 0 1-.248.065.5.5 0 0 1-.247-.066l-13.838-6.867c-.216-.106-.451-.161-.688-.16h-.01a1.34 1.34 0 0 0-.997.363 1.51 1.51 0 0 0-.468 1.002v13.107h5.297v-6.587c.009-.091.039-.178.088-.253a.54.54 0 0 1 .19-.181.51.51 0 0 1 .247-.065c.087 0 .171.023.248.066l13.892 6.867c.215.105.449.16.686.159a1.34 1.34 0 0 0 .997-.363c.275-.256.443-.616.469-1.002v-13.113zm4.139 14.488v-14.488h2.423v14.488h-2.423zm16.681.258c-6.517 0-11.141-2.882-11.141-7.5 0-4.593 4.651-7.5 11.141-7.5S426 200.882 426 205.5s-4.568 7.5-11.168 7.5zm0-13.08c-4.846 0-8.579 1.973-8.579 5.58 0 3.633 3.733 5.579 8.579 5.579s8.605-1.946 8.605-5.579c0-3.607-3.759-5.58-8.605-5.58z" fill="#c72c48"/><path d="M51.5 109.5L66 122m50-14l16 14" stroke-width="4" class="D H"/><path d="M1 100.5l24.478-15.177a1 1 0 0 1 1.046-.005L51.5 100.5v30.428a1 1 0 0 1-.493.862L26 146.5 1.449 130.296a1 1 0 0 1-.449-.834V100.5z" class="C"/><path d="M1 100.5l24.478-15.177a1 1 0 0 1 1.046-.005L51.5 100.5m-50.5 0v28.962a1 1 0 0 0 .449.834L26 146.5m-25-46l25 15m25.5-15v30.428a1 1 0 0 1-.493.862L26 146.5m25.5-46l-25.5 15m0 31v-31" class="B D"/><path d="M66 100.5l24.478-15.177a1 1 0 0 1 1.046-.005L116.5 100.5v30.428a1 1 0 0 1-.493.862L91 146.5l-24.551-16.204a1 1 0 0 1-.449-.834V100.5z" class="C"/><path d="M66 100.5l24.478-15.177a1 1 0 0 1 1.046-.005L116.5 100.5m-50.5 0v28.962a1 1 0 0 0 .449.834L91 146.5m-25-46l25 15m25.5-15v30.428a1 1 0 0 1-.493.862L91 146.5m25.5-46l-25.5 15m0 31v-31" class="B D"/><path d="M131 100.5l24.478-15.177a1 1 0 0 1 1.047-.005L181.5 100.5v30.428a1 1 0 0 1-.493.862L156 146.5l-24.551-16.204a1 1 0 0 1-.449-.834V100.5z" class="C"/><g class="D"><path d="M131 100.5l24.478-15.177a1 1 0 0 1 1.047-.005L181.5 100.5m-50.5 0v28.962a1 1 0 0 0 .449.834L156 146.5m-25-46l25 15m25.5-15v30.428a1 1 0 0 1-.493.862L156 146.5m25.5-46l-25.5 15m0 31v-31" class="B"/><path d="M51.5 285.5L66 298m50-14l16 14" stroke-width="4" class="H"/></g><path d="M1 276.5l24.478-15.177a1 1 0 0 1 1.046-.004L51.5 276.5v30.428a1 1 0 0 1-.493.862L26 322.5 1.449 306.296a1 1 0 0 1-.449-.834V276.5z" class="C"/><path d="M1 276.5l24.478-15.177a1 1 0 0 1 1.046-.004L51.5 276.5m-50.5 0v28.962a1 1 0 0 0 .449.834L26 322.5m-25-46l25 15m25.5-15v30.428a1 1 0 0 1-.493.862L26 322.5m25.5-46l-25.5 15m0 31v-31" class="B D"/><path d="M66 276.5l24.478-15.177a1 1 0 0 1 1.046-.004L116.5 276.5v30.428a1 1 0 0 1-.493.862L91 322.5l-24.551-16.204a1 1 0 0 1-.449-.834V276.5z" class="C"/><path d="M66 276.5l24.478-15.177a1 1 0 0 1 1.046-.004L116.5 276.5m-50.5 0v28.962a1 1 0 0 0 .449.834L91 322.5m-25-46l25 15m25.5-15v30.428a1 1 0 0 1-.493.862L91 322.5m25.5-46l-25.5 15m0 31v-31" class="B D"/><path d="M131 276.5l24.478-15.177a1 1 0 0 1 1.047-.004L181.5 276.5v30.428a1 1 0 0 1-.493.862L156 322.5l-24.551-16.204a1 1 0 0 1-.449-.834V276.5z" class="C"/><path d="M131 276.5l24.478-15.177a1 1 0 0 1 1.047-.004L181.5 276.5m-50.5 0v28.962a1 1 0 0 0 .449.834L156 322.5m-25-46l25 15m25.5-15v30.428a1 1 0 0 1-.493.862L156 322.5m25.5-46l-25.5 15m0 31v-31" class="B D"/><path d="M717 48.846l18.789-11.528a1 1 0 0 1 1.039-.005L756 48.846v23.116a1 1 0 0 1-.497.864L736.307 84l-18.854-12.314a1 1 0 0 1-.453-.837V48.846z" class="C"/><path d="M717 48.846l18.789-11.528a1 1 0 0 1 1.039-.005L756 48.846m-39 0v22.004a1 1 0 0 0 .453.837L736.307 84M717 48.846l19.307 11.463M756 48.846v23.116a1 1 0 0 1-.497.864L736.307 84M756 48.846l-19.693 11.463m0 23.691V60.309" class="B E"/><path d="M717 105.846l18.789-11.528a1 1 0 0 1 1.039-.005L756 105.846v23.116a1 1 0 0 1-.497.864L736.307 141l-18.854-12.314c-.283-.184-.453-.499-.453-.837v-22.003z" class="C"/><path d="M717 105.846l18.789-11.528a1 1 0 0 1 1.039-.005L756 105.846m-39 0v22.003c0 .338.17.653.453.837L736.307 141M717 105.846l19.307 11.463M756 105.846v23.116a1 1 0 0 1-.497.864L736.307 141M756 105.846l-19.693 11.463m0 23.691v-23.691" class="B E"/><path d="M717 225.845l18.789-11.527a1 1 0 0 1 1.039-.005L756 225.845v23.117a1 1 0 0 1-.497.864L736.307 261l-18.854-12.314c-.283-.184-.453-.499-.453-.837v-22.004z" class="C"/><path d="M717 225.845l18.789-11.527a1 1 0 0 1 1.039-.005L756 225.845m-39 0v22.004c0 .338.17.653.453.837L736.307 261M717 225.845l19.307 11.464M756 225.845v23.117a1 1 0 0 1-.497.864L736.307 261M756 225.845l-19.693 11.464m0 23.691v-23.691" class="B E"/><path d="M717 161.845l18.789-11.527a1 1 0 0 1 1.039-.005L756 161.845v23.117a1 1 0 0 1-.497.864L736.307 197l-18.854-12.314c-.283-.184-.453-.499-.453-.837v-22.004z" class="C"/><path d="M717 161.845l18.789-11.527a1 1 0 0 1 1.039-.005L756 161.845m-39 0v22.004c0 .338.17.653.453.837L736.307 197M717 161.845l19.307 11.464M756 161.845v23.117a1 1 0 0 1-.497.864L736.307 197M756 161.845l-19.693 11.464m0 23.691v-23.691" class="B F"/><path d="M717 279.845l18.789-11.527a1 1 0 0 1 1.039-.005L756 279.845v23.117a1 1 0 0 1-.497.864L736.307 315l-18.854-12.314c-.283-.184-.453-.499-.453-.837v-22.004z" class="C"/><path d="M717 279.845l18.789-11.527a1 1 0 0 1 1.039-.005L756 279.845m-39 0v22.004c0 .338.17.653.453.837L736.307 315M717 279.845l19.307 11.464M756 279.845v23.117a1 1 0 0 1-.497.864L736.307 315M756 279.845l-19.693 11.464m0 23.691v-23.691" class="B F"/><path d="M717 334.845l18.789-11.527a1 1 0 0 1 1.039-.005L756 334.845v23.117a1 1 0 0 1-.497.864L736.307 370l-18.854-12.314c-.283-.184-.453-.499-.453-.837v-22.004z" class="C"/><path d="M717 334.845l18.789-11.527a1 1 0 0 1 1.039-.005L756 334.845m-39 0v22.004c0 .338.17.653.453.837L736.307 370M717 334.845l19.307 11.464M756 334.845v23.117a1 1 0 0 1-.497.864L736.307 370M756 334.845l-19.693 11.464m0 23.691v-23.691" class="B F"/><path d="M642 88c0 3.866-14.775 7-33 7s-33-3.134-33-7 14.775-7 33-7 33 3.134 33 7z" class="C"/><g class="B D"><use xlink:href="#B"/><use xlink:href="#B"/><use xlink:href="#B"/></g><path d="M642 264c0 3.866-14.775 7-33 7s-33-3.134-33-7 14.775-7 33-7 33 3.134 33 7z" class="C"/><g class="D"><g class="B"><use xlink:href="#C"/><use xlink:href="#C"/><use xlink:href="#C"/></g><path d="M908.5 87.5h-18.086a1 1 0 0 0-.707.293L860 117.5m0 0l29.705 30.695a1 1 0 0 0 .719.305H908.5m-48.5-31h48.5m0 141h-18.571a1 1 0 0 0-.725.311L860.5 289m0 0h48m-48 0l30.329 30.5M967 378h-17.584a1 1 0 0 1-.709-.295l-28.793-28.955m-29.085-29.25H908.5m-17.671 0l29.085 29.25m0 0H938.5" class="G"/></g><g fill="#000"><path d="M73.46 58c2.187 0 3.943.64 5.27 1.92 1.333 1.28 2 2.973 2 5.08s-.667 3.8-2 5.08C77.403 71.36 75.647 72 73.46 72H67.9V58h5.56zm-3.3 2.14v9.72h3.3c1.587 0 2.8-.443 3.64-1.33s1.26-2.063 1.26-3.53c0-1.473-.42-2.65-1.26-3.53-.833-.887-2.047-1.33-3.64-1.33h-3.3zM92.719 72h-2.09v-1.15c-.733.933-1.737 1.4-3.01 1.4-1.353 0-2.49-.477-3.41-1.43s-1.38-2.157-1.38-3.61.46-2.657 1.38-3.61 2.057-1.43 3.41-1.43c1.267 0 2.27.47 3.01 1.41v-1.16h2.09V72zm-4.85-7.86c-.873 0-1.573.297-2.1.89-.527.587-.79 1.313-.79 2.18s.263 1.597.79 2.19c.527.587 1.227.88 2.1.88.853 0 1.547-.29 2.08-.87.54-.58.81-1.313.81-2.2s-.27-1.62-.81-2.2c-.533-.58-1.227-.87-2.08-.87zm14.66.18h-3.67v4.17c0 .607.14 1.057.42 1.35s.647.44 1.1.44c.6 0 1.244-.217 1.93-.65l.83 1.67c-.94.633-1.92.95-2.94.95-1.106 0-1.956-.307-2.55-.92s-.89-1.547-.89-2.8v-4.21h-1.91v-1.9h1.91v-2.9h2.1v2.9h3.67v1.9zM114.281 72h-2.09v-1.15c-.733.933-1.736 1.4-3.01 1.4-1.353 0-2.49-.477-3.41-1.43s-1.38-2.157-1.38-3.61.46-2.657 1.38-3.61 2.057-1.43 3.41-1.43c1.267 0 2.27.47 3.01 1.41v-1.16h2.09V72zm-4.85-7.86c-.873 0-1.573.297-2.1.89-.526.587-.79 1.313-.79 2.18s.264 1.597.79 2.19c.527.587 1.227.88 2.1.88.854 0 1.547-.29 2.08-.87.54-.58.81-1.313.81-2.2s-.27-1.62-.81-2.2c-.533-.58-1.226-.87-2.08-.87zM203.07 94.1c-1.26-.8-2.57-1.2-3.93-1.2-.94 0-1.7.19-2.28.57s-.87.887-.87 1.52a1.34 1.34 0 0 0 .71 1.24c.48.273 1.213.483 2.2.63l.97.13c3.007.427 4.51 1.71 4.51 3.85 0 .913-.26 1.71-.78 2.39s-1.2 1.187-2.04 1.52c-.833.333-1.763.5-2.79.5a10.07 10.07 0 0 1-3.05-.49c-1.033-.327-1.893-.79-2.58-1.39l1.23-1.8c.487.447 1.14.817 1.96 1.11.82.287 1.63.43 2.43.43.94 0 1.72-.187 2.34-.56.62-.38.93-.883.93-1.51 0-.527-.26-.937-.78-1.23-.513-.293-1.303-.513-2.37-.66l-1.09-.15c-.44-.06-.853-.147-1.24-.26-.38-.113-.753-.273-1.12-.48a3.98 3.98 0 0 1-.94-.72 3.34 3.34 0 0 1-.62-1.03 3.95 3.95 0 0 1-.23-1.38c0-.907.25-1.693.75-2.36.5-.673 1.163-1.177 1.99-1.51s1.753-.5 2.78-.5c1.847 0 3.533.503 5.06 1.51l-1.15 1.83z"/><use xlink:href="#D"/><path d="M231.141 105h-10.21V91h10.08v2.12h-7.82v3.77h7.55v2.12h-7.55v3.87h7.95V105zm8.555-4.38h-5.8v-1.9h5.8v1.9z"/><use xlink:href="#D" x="35.117"/><path d="M259.768 90.76c1.42 0 2.567.367 3.44 1.1.88.733 1.32 1.7 1.32 2.9 0 .727-.19 1.363-.57 1.91-.373.54-.893.963-1.56 1.27.76.307 1.357.74 1.79 1.3.44.553.66 1.203.66 1.95 0 .66-.14 1.253-.42 1.78-.273.527-.643.953-1.11 1.28-.466.32-.993.567-1.58.74-.58.167-1.193.25-1.84.25-1.033 0-1.963-.173-2.79-.52a5.17 5.17 0 0 1-2.03-1.48l1.39-1.45a4.4 4.4 0 0 0 1.52 1.06c.594.247 1.214.37 1.86.37.807 0 1.464-.18 1.97-.54.507-.367.76-.897.76-1.59 0-.673-.286-1.2-.86-1.58s-1.296-.57-2.17-.57h-1.69v-1.99h1.68c.794 0 1.447-.177 1.96-.53.514-.36.77-.877.77-1.55 0-.64-.253-1.147-.76-1.52-.506-.38-1.133-.57-1.88-.57a3.19 3.19 0 0 0-1.65.43 3.69 3.69 0 0 0-1.18 1.08l-1.56-1.33c.42-.66 1.017-1.19 1.79-1.59.774-.407 1.687-.61 2.74-.61z"/><use xlink:href="#E"/><path d="M216.586 307.1c-1.26-.8-2.57-1.2-3.93-1.2-.94 0-1.7.19-2.28.57s-.87.887-.87 1.52c0 .553.236.967.71 1.24.48.273 1.213.483 2.2.63l.97.13c3.006.427 4.51 1.71 4.51 3.85 0 .913-.26 1.71-.78 2.39s-1.2 1.187-2.04 1.52c-.834.333-1.764.5-2.79.5a10.07 10.07 0 0 1-3.05-.49c-1.034-.327-1.894-.79-2.58-1.39l1.23-1.8c.486.447 1.14.817 1.96 1.11.82.287 1.63.43 2.43.43.94 0 1.72-.187 2.34-.56.62-.38.93-.883.93-1.51 0-.527-.26-.937-.78-1.23-.514-.293-1.304-.513-2.37-.66l-1.09-.15c-.44-.06-.854-.147-1.24-.26a5.4 5.4 0 0 1-1.12-.48c-.367-.207-.68-.447-.94-.72-.254-.28-.46-.623-.62-1.03-.154-.413-.23-.873-.23-1.38 0-.907.25-1.693.75-2.36.5-.673 1.163-1.177 1.99-1.51s1.753-.5 2.78-.5c1.846 0 3.533.503 5.06 1.51l-1.15 1.83zm14.555 10.9h-10.21v-14h10.08v2.12h-7.82v3.77h7.55v2.12h-7.55v3.87h7.95V318zm8.555-4.38h-5.8v-1.9h5.8v1.9zm9.797-9.88c1.247 0 2.387.263 3.42.79 1.04.52 1.834 1.233 2.38 2.14l-1.89 1.26c-.433-.633-.986-1.127-1.66-1.48-.673-.36-1.423-.54-2.25-.54-1.433 0-2.62.473-3.56 1.42-.933.947-1.4 2.17-1.4 3.67s.467 2.723 1.4 3.67c.94.947 2.127 1.42 3.56 1.42.827 0 1.57-.173 2.23-.52a4.57 4.57 0 0 0 1.67-1.49l1.84 1.35c-.6.887-1.403 1.58-2.41 2.08-1 .5-2.11.75-3.33.75-1.413 0-2.68-.31-3.8-.93a6.68 6.68 0 0 1-2.6-2.6c-.62-1.107-.93-2.35-.93-3.73s.31-2.623.93-3.73 1.487-1.97 2.6-2.59c1.12-.627 2.387-.94 3.8-.94zm112.017 68.29h-1.35V378h-2.26v-14h2.26v5.89h1.38l5.26-5.89h2.92l-6.3 6.83 6.73 7.17h-3.07l-5.57-5.97zm25.708 5.97h-2.26v-11.52l-4.09 10.15h-2.38l-4.09-10.04V378h-2.26v-14h3.47l4.07 10 4.07-10h3.47v14z"/><use xlink:href="#E" x="197.125" y="60"/><path d="M575.98 65h-2.26V53.48l-4.09 10.15h-2.38l-4.09-10.04V65h-2.26V51h3.47l4.07 10 4.07-10h3.47v14zm5.207 4.06h-2.32l3.43-6.03-4.25-7.61h2.35l3.08 5.5 2.97-5.5h2.3l-7.56 13.64zM596.193 51c.614 0 1.177.043 1.69.13a6.06 6.06 0 0 1 1.44.42 3.65 3.65 0 0 1 1.13.72c.306.293.547.657.72 1.09.174.427.26.91.26 1.45 0 .707-.203 1.337-.61 1.89a2.88 2.88 0 0 1-1.55 1.09 3.57 3.57 0 0 1 1.76 1.19c.48.573.72 1.247.72 2.02 0 1.353-.46 2.36-1.38 3.02-.92.653-2.206.98-3.86.98h-5.75V51h5.43zm-3.17 8v3.88h3.39c.48 0 .887-.027 1.22-.08.34-.053.647-.15.92-.29a1.35 1.35 0 0 0 .62-.6c.14-.267.21-.597.21-.99 0-.733-.25-1.237-.75-1.51s-1.24-.41-2.22-.41h-3.39zm0-5.88v3.77h3.1l.91-.03a4.25 4.25 0 0 0 .79-.16 2.03 2.03 0 0 0 .66-.32 1.5 1.5 0 0 0 .42-.56c.106-.233.16-.513.16-.84 0-.387-.076-.707-.23-.96-.153-.26-.38-.45-.68-.57a3.63 3.63 0 0 0-.92-.26 7.76 7.76 0 0 0-1.13-.07h-3.08zm20.284 7.82c0 .733-.127 1.383-.38 1.95-.247.567-.584 1.02-1.01 1.36a4.43 4.43 0 0 1-1.41.75c-.514.167-1.06.25-1.64.25s-1.13-.083-1.65-.25a4.55 4.55 0 0 1-1.41-.75c-.427-.34-.764-.793-1.01-1.36s-.37-1.217-.37-1.95v-5.52h2.1v5.33c0 .873.21 1.513.63 1.92.426.407.996.61 1.71.61s1.28-.203 1.7-.61c.426-.407.64-1.047.64-1.92v-5.33h2.1v5.52zm7.523-5.77a5.17 5.17 0 0 1 2.02.39 4.05 4.05 0 0 1 1.56 1.14l-1.34 1.43c-.7-.66-1.467-.99-2.3-.99a2.67 2.67 0 0 0-2.03.86c-.533.573-.8 1.31-.8 2.21s.267 1.637.8 2.21a2.67 2.67 0 0 0 2.03.86c.853 0 1.637-.333 2.35-1l1.29 1.44c-.887 1.02-2.08 1.53-3.58 1.53s-2.717-.477-3.65-1.43c-.927-.953-1.39-2.157-1.39-3.61s.463-2.657 1.39-3.61c.933-.953 2.15-1.43 3.65-1.43zm8.023 3.89h1.05l3.16-3.64h2.63l-4.01 4.51 4.05 5.07h-2.65l-3.19-4.04h-1.04V65h-2.1V50.6h2.1v8.46z"/><use xlink:href="#F"/><path d="M654.846 57.32h-3.67v4.17c0 .607.14 1.057.42 1.35s.646.44 1.1.44c.6 0 1.243-.217 1.93-.65l.83 1.67c-.94.633-1.92.95-2.94.95-1.107 0-1.957-.307-2.55-.92s-.89-1.547-.89-2.8v-4.21h-1.91v-1.9h1.91v-2.9h2.1v2.9h3.67v1.9zM703.98 15h-2.26V3.48l-4.09 10.15h-2.38l-4.09-10.04V15h-2.26V1h3.47l4.07 10 4.07-10h3.47v14zm5.207 4.06h-2.32l3.43-6.03-4.25-7.61h2.35l3.08 5.5 2.97-5.5h2.3l-7.56 13.64zm12.346-17.38c1.12-.627 2.387-.94 3.8-.94s2.677.313 3.79.94a6.59 6.59 0 0 1 2.61 2.59c.62 1.107.93 2.35.93 3.73s-.31 2.623-.93 3.73a6.66 6.66 0 0 1-2.61 2.6c-1.113.62-2.376.93-3.79.93s-2.68-.31-3.8-.93a6.68 6.68 0 0 1-2.6-2.6c-.62-1.107-.93-2.35-.93-3.73s.31-2.623.93-3.73a6.61 6.61 0 0 1 2.6-2.59zm7.35 2.65c-.933-.947-2.116-1.42-3.55-1.42s-2.62.473-3.56 1.42c-.933.947-1.4 2.17-1.4 3.67s.467 2.723 1.4 3.67c.94.947 2.127 1.42 3.56 1.42s2.617-.473 3.55-1.42c.94-.947 1.41-2.17 1.41-3.67s-.47-2.723-1.41-3.67zm11.644.84c1.353 0 2.49.477 3.41 1.43s1.38 2.157 1.38 3.61-.46 2.657-1.38 3.61-2.057 1.43-3.41 1.43c-1.26 0-2.26-.463-3-1.39V15h-2.09V.6h2.09v5.96c.74-.927 1.74-1.39 3-1.39zm-.25 1.97c-.853 0-1.55.29-2.09.87-.533.58-.8 1.313-.8 2.2s.267 1.62.8 2.2c.54.58 1.237.87 2.09.87.873 0 1.573-.293 2.1-.88.527-.593.79-1.323.79-2.19s-.263-1.593-.79-2.18c-.527-.593-1.227-.89-2.1-.89zm9.781 9.04c0 .96-.257 1.7-.77 2.22-.514.527-1.194.79-2.04.79-.567 0-1.05-.097-1.45-.29l.49-1.82c.26.093.516.14.77.14a.83.83 0 0 0 .65-.28c.166-.18.25-.467.25-.86V5.42h2.1v10.76zM748.988.63a1.43 1.43 0 0 1 1.05.43 1.43 1.43 0 0 1 .43 1.05 1.41 1.41 0 0 1-.43 1.05c-.28.273-.63.41-1.05.41s-.77-.137-1.05-.41c-.273-.28-.41-.63-.41-1.05s.137-.77.41-1.05c.28-.287.63-.43 1.05-.43z"/><use xlink:href="#F" x="116.125" y="-50"/><path d="M768.888 5.17a5.17 5.17 0 0 1 2.02.39 4.05 4.05 0 0 1 1.56 1.14l-1.34 1.43c-.7-.66-1.466-.99-2.3-.99a2.67 2.67 0 0 0-2.03.86c-.533.573-.8 1.31-.8 2.21s.267 1.637.8 2.21a2.67 2.67 0 0 0 2.03.86c.854 0 1.637-.333 2.35-1l1.29 1.44c-.886 1.02-2.08 1.53-3.58 1.53s-2.716-.477-3.65-1.43c-.926-.953-1.39-2.157-1.39-3.61s.464-2.657 1.39-3.61c.934-.953 2.15-1.43 3.65-1.43zm12.552 2.15h-3.67v4.17c0 .607.14 1.057.42 1.35s.646.44 1.1.44c.6 0 1.243-.217 1.93-.65l.83 1.67c-.94.633-1.92.95-2.94.95-1.107 0-1.957-.307-2.55-.92s-.89-1.547-.89-2.8V7.32h-1.91v-1.9h1.91v-2.9h2.1v2.9h3.67v1.9z"/></g><g fill="#525252"><path d="M779.282 122h-2.034v-10.368l-3.681 9.135h-2.142l-3.681-9.036V122h-2.034v-12.6h3.123l3.663 9 3.663-9h3.123V122z"/><use xlink:href="#G"/><use xlink:href="#H"/><use xlink:href="#I"/><path d="M815.555 113.153c1.14 0 2.043.423 2.709 1.269v-5.382h1.881V122h-1.881v-1.035c-.66.84-1.563 1.26-2.709 1.26-1.218 0-2.241-.429-3.069-1.287s-1.242-1.941-1.242-3.249.414-2.391 1.242-3.249 1.851-1.287 3.069-1.287zm.225 1.773c-.786 0-1.416.267-1.89.801-.474.528-.711 1.182-.711 1.962s.237 1.437.711 1.971c.474.528 1.104.792 1.89.792.768 0 1.392-.261 1.872-.783.486-.522.729-1.182.729-1.98s-.243-1.458-.729-1.98c-.48-.522-1.104-.783-1.872-.783z"/><use xlink:href="#I" x="22.465"/><use xlink:href="#J"/><use xlink:href="#I" x="41.871"/><path d="M921.894 81.4c1.458 0 2.565.312 3.321.936.762.618 1.143 1.521 1.143 2.709 0 1.068-.381 1.932-1.143 2.592-.756.66-1.776 1.014-3.06 1.062L926.304 94h-2.52l-4.014-5.301h-1.026V94h-2.034V81.4h5.184zm-3.15 1.908v3.546h3.096c.822 0 1.428-.147 1.818-.441.39-.3.585-.756.585-1.368 0-.594-.198-1.032-.594-1.314s-.999-.423-1.809-.423h-3.096zM936.779 94h-1.881v-1.035c-.66.84-1.563 1.26-2.709 1.26-1.218 0-2.241-.429-3.069-1.287s-1.242-1.941-1.242-3.249.414-2.391 1.242-3.249 1.851-1.287 3.069-1.287c1.14 0 2.043.423 2.709 1.269v-1.044h1.881V94zm-4.365-7.074c-.786 0-1.416.267-1.89.801-.474.528-.711 1.182-.711 1.962s.237 1.437.711 1.971c.474.528 1.104.792 1.89.792.768 0 1.392-.261 1.872-.783.486-.522.729-1.182.729-1.98s-.243-1.458-.729-1.98c-.48-.522-1.104-.783-1.872-.783zm11.836-1.773c1.026 0 1.866.321 2.52.963.654.636.981 1.458.981 2.466V94h-1.89v-4.797c0-.72-.177-1.275-.531-1.665-.348-.396-.84-.594-1.476-.594s-1.167.204-1.593.612c-.426.402-.639.957-.639 1.665V94h-1.89v-8.622h1.872v1.053c.588-.852 1.47-1.278 2.646-1.278zm10.053 0c1.14 0 2.043.423 2.709 1.269V81.04h1.881V94h-1.881v-1.035c-.66.84-1.563 1.26-2.709 1.26-1.218 0-2.241-.429-3.069-1.287s-1.242-1.941-1.242-3.249.414-2.391 1.242-3.249 1.851-1.287 3.069-1.287zm.225 1.773c-.786 0-1.416.267-1.89.801-.474.528-.711 1.182-.711 1.962s.237 1.437.711 1.971c.474.528 1.104.792 1.89.792.768 0 1.392-.261 1.872-.783.486-.522.729-1.182.729-1.98s-.243-1.458-.729-1.98c-.48-.522-1.104-.783-1.872-.783z"/><use xlink:href="#K"/><path d="M983.478 85.153c1.026 0 1.866.321 2.52.963.654.636.981 1.458.981 2.466V94h-1.89v-4.797c0-.72-.177-1.275-.531-1.665-.348-.396-.84-.594-1.476-.594s-1.167.204-1.593.612c-.426.402-.639.957-.639 1.665V94h-1.89v-4.797c0-.72-.177-1.275-.531-1.665-.348-.396-.84-.594-1.476-.594s-1.167.204-1.593.612c-.426.402-.639.957-.639 1.665V94h-1.89v-8.622h1.872v1.053c.588-.852 1.47-1.278 2.646-1.278.654 0 1.236.135 1.746.405.516.27.927.648 1.233 1.134.624-1.026 1.674-1.539 3.15-1.539zM996.967 94h-2.034V81.4h2.034V94zm9.323 0h-2.54l-4.808-12.6h2.168l3.92 10.539 3.96-10.539h2.1l-4.8 12.6zm-84.396 158.4c1.458 0 2.565.312 3.321.936.762.618 1.143 1.521 1.143 2.709 0 1.068-.381 1.932-1.143 2.592-.756.66-1.776 1.014-3.06 1.062l4.149 5.301h-2.52l-4.014-5.301h-1.026V265h-2.034v-12.6h5.184zm-3.15 1.908v3.546h3.096c.822 0 1.428-.147 1.818-.441.39-.3.585-.756.585-1.368 0-.594-.198-1.032-.594-1.314s-.999-.423-1.809-.423h-3.096zM936.779 265h-1.881v-1.035c-.66.84-1.563 1.26-2.709 1.26-1.218 0-2.241-.429-3.069-1.287s-1.242-1.941-1.242-3.249.414-2.391 1.242-3.249 1.851-1.287 3.069-1.287c1.14 0 2.043.423 2.709 1.269v-1.044h1.881V265zm-4.365-7.074c-.786 0-1.416.267-1.89.801-.474.528-.711 1.182-.711 1.962s.237 1.437.711 1.971c.474.528 1.104.792 1.89.792.768 0 1.392-.261 1.872-.783.486-.522.729-1.182.729-1.98s-.243-1.458-.729-1.98c-.48-.522-1.104-.783-1.872-.783zm11.836-1.773c1.026 0 1.866.321 2.52.963.654.636.981 1.458.981 2.466V265h-1.89v-4.797c0-.72-.177-1.275-.531-1.665-.348-.396-.84-.594-1.476-.594s-1.167.204-1.593.612c-.426.402-.639.957-.639 1.665V265h-1.89v-8.622h1.872v1.053c.588-.852 1.47-1.278 2.646-1.278zm10.053 0c1.14 0 2.043.423 2.709 1.269v-5.382h1.881V265h-1.881v-1.035c-.66.84-1.563 1.26-2.709 1.26-1.218 0-2.241-.429-3.069-1.287s-1.242-1.941-1.242-3.249.414-2.391 1.242-3.249 1.851-1.287 3.069-1.287zm.225 1.773c-.786 0-1.416.267-1.89.801-.474.528-.711 1.182-.711 1.962s.237 1.437.711 1.971c.474.528 1.104.792 1.89.792.768 0 1.392-.261 1.872-.783.486-.522.729-1.182.729-1.98s-.243-1.458-.729-1.98c-.48-.522-1.104-.783-1.872-.783z"/><use xlink:href="#K" y="171"/><path d="M983.478 256.153c1.026 0 1.866.321 2.52.963.654.636.981 1.458.981 2.466V265h-1.89v-4.797c0-.72-.177-1.275-.531-1.665-.348-.396-.84-.594-1.476-.594s-1.167.204-1.593.612c-.426.402-.639.957-.639 1.665V265h-1.89v-4.797c0-.72-.177-1.275-.531-1.665-.348-.396-.84-.594-1.476-.594s-1.167.204-1.593.612c-.426.402-.639.957-.639 1.665V265h-1.89v-8.622h1.872v1.053c.588-.852 1.47-1.278 2.646-1.278.654 0 1.236.135 1.746.405.516.27.927.648 1.233 1.134.624-1.026 1.674-1.539 3.15-1.539zM996.967 265h-2.034v-12.6h2.034V265zm9.323 0h-2.54l-4.808-12.6h2.168l3.92 10.539 3.96-10.539h2.1l-4.8 12.6zm-78.528-142h-2.187l-1.242-3.213h-5.706L917.385 123h-2.115l4.977-12.6h2.538l4.977 12.6zm-8.388-5.139h4.212l-2.106-5.436-2.106 5.436zM931.391 123h-1.89v-12.96h1.89V123z"/><use xlink:href="#L"/><use xlink:href="#K" x="-16.418" y="29"/><path d="M960.778 114.153c.558 0 1.042.081 1.45.243l-.451 1.863c-.402-.21-.879-.315-1.431-.315-.612 0-1.107.204-1.485.612s-.567.975-.567 1.701V123h-1.881v-8.622h1.864v.972c.558-.798 1.391-1.197 2.501-1.197zm5.26 8.847h-1.89v-8.622h1.89V123zm-.954-12.933c.372 0 .687.129.945.387s.387.573.387.945c0 .378-.129.693-.387.945-.252.246-.567.369-.945.369s-.693-.123-.945-.369c-.246-.252-.369-.567-.369-.945s.123-.693.369-.945c.252-.258.567-.387.945-.387z"/><use xlink:href="#H" x="176.524" y="1"/><path d="M979.046 115.404c.588-.834 1.464-1.251 2.628-1.251 1.026 0 1.866.321 2.52.963.654.636.981 1.458.981 2.466V123h-1.89v-4.797c0-.72-.177-1.275-.531-1.665-.348-.396-.84-.594-1.476-.594s-1.167.204-1.593.612c-.426.402-.639.957-.639 1.665V123h-1.89v-12.96h1.89v5.364zm19.638-1.251c1.026 0 1.866.321 2.516.963.66.636.98 1.458.98 2.466V123h-1.89v-4.797c0-.72-.17-1.275-.526-1.665-.348-.396-.84-.594-1.476-.594s-1.167.204-1.593.612c-.426.402-.639.957-.639 1.665V123h-1.89v-4.797c0-.72-.177-1.275-.531-1.665-.348-.396-.84-.594-1.476-.594s-1.167.204-1.593.612c-.426.402-.639.957-.639 1.665V123h-1.89v-8.622h1.872v1.053c.588-.852 1.47-1.278 2.646-1.278.654 0 1.236.135 1.746.405.516.27.927.648 1.233 1.134.624-1.026 1.674-1.539 3.15-1.539zM1021.05 123h-1.84l-7.03-9.117-.01 9.117h-2.03v-12.6h1.83l7.04 9.117V110.4h2.04V123zm11.46 0h-1.88v-1.035c-.66.84-1.56 1.26-2.71 1.26-1.22 0-2.24-.429-3.07-1.287s-1.24-1.941-1.24-3.249.41-2.391 1.24-3.249 1.85-1.287 3.07-1.287c1.14 0 2.04.423 2.71 1.269v-1.044h1.88V123zm-4.37-7.074c-.78 0-1.41.267-1.89.801-.47.528-.71 1.182-.71 1.962s.24 1.437.71 1.971c.48.528 1.11.792 1.89.792.77 0 1.4-.261 1.88-.783s.73-1.182.73-1.98-.25-1.458-.73-1.98-1.11-.783-1.88-.783zm17.97-1.773c1.03 0 1.87.321 2.52.963.65.636.98 1.458.98 2.466V123h-1.89v-4.797c0-.72-.18-1.275-.53-1.665-.35-.396-.84-.594-1.48-.594-.63 0-1.16.204-1.59.612-.43.402-.64.957-.64 1.665V123h-1.89v-4.797c0-.72-.18-1.275-.53-1.665-.35-.396-.84-.594-1.48-.594-.63 0-1.16.204-1.59.612-.42.402-.64.957-.64 1.665V123h-1.89v-8.622h1.87v1.053c.59-.852 1.47-1.278 2.65-1.278.65 0 1.24.135 1.75.405s.92.648 1.23 1.134c.62-1.026 1.67-1.539 3.15-1.539z"/><use xlink:href="#M"/><path d="M927.762 296h-2.187l-1.242-3.213h-5.706L917.385 296h-2.115l4.977-12.6h2.538l4.977 12.6zm-8.388-5.139h4.212l-2.106-5.436-2.106 5.436zM931.391 296h-1.89v-12.96h1.89V296z"/><use xlink:href="#L" y="173"/><use xlink:href="#K" x="-16.418" y="202"/><path d="M960.778 287.153c.558 0 1.042.081 1.45.243l-.451 1.863c-.402-.21-.879-.315-1.431-.315-.612 0-1.107.204-1.485.612s-.567.975-.567 1.701V296h-1.881v-8.622h1.864v.972c.558-.798 1.391-1.197 2.501-1.197zm5.26 8.847h-1.89v-8.622h1.89V296zm-.954-12.933c.372 0 .687.129.945.387s.387.573.387.945c0 .378-.129.693-.387.945-.252.246-.567.369-.945.369s-.693-.123-.945-.369c-.246-.252-.369-.567-.369-.945s.123-.693.369-.945c.252-.258.567-.387.945-.387z"/><use xlink:href="#H" x="176.524" y="174"/><path d="M979.046 288.404c.588-.834 1.464-1.251 2.628-1.251 1.026 0 1.866.321 2.52.963.654.636.981 1.458.981 2.466V296h-1.89v-4.797c0-.72-.177-1.275-.531-1.665-.348-.396-.84-.594-1.476-.594s-1.167.204-1.593.612c-.426.402-.639.957-.639 1.665V296h-1.89v-12.96h1.89v5.364zm19.638-1.251c1.026 0 1.866.321 2.516.963.66.636.98 1.458.98 2.466V296h-1.89v-4.797c0-.72-.17-1.275-.526-1.665-.348-.396-.84-.594-1.476-.594s-1.167.204-1.593.612c-.426.402-.639.957-.639 1.665V296h-1.89v-4.797c0-.72-.177-1.275-.531-1.665-.348-.396-.84-.594-1.476-.594s-1.167.204-1.593.612c-.426.402-.639.957-.639 1.665V296h-1.89v-8.622h1.872v1.053c.588-.852 1.47-1.278 2.646-1.278.654 0 1.236.135 1.746.405.516.27.927.648 1.233 1.134.624-1.026 1.674-1.539 3.15-1.539zM1021.05 296h-1.84l-7.03-9.117-.01 9.117h-2.03v-12.6h1.83l7.04 9.117V283.4h2.04V296zm11.46 0h-1.88v-1.035c-.66.84-1.56 1.26-2.71 1.26-1.22 0-2.24-.429-3.07-1.287s-1.24-1.941-1.24-3.249.41-2.391 1.24-3.249 1.85-1.287 3.07-1.287c1.14 0 2.04.423 2.71 1.269v-1.044h1.88V296zm-4.37-7.074c-.78 0-1.41.267-1.89.801-.47.528-.71 1.182-.71 1.962s.24 1.437.71 1.971c.48.528 1.11.792 1.89.792.77 0 1.4-.261 1.88-.783s.73-1.182.73-1.98-.25-1.458-.73-1.98-1.11-.783-1.88-.783zm17.97-1.773c1.03 0 1.87.321 2.52.963.65.636.98 1.458.98 2.466V296h-1.89v-4.797c0-.72-.18-1.275-.53-1.665-.35-.396-.84-.594-1.48-.594-.63 0-1.16.204-1.59.612-.43.402-.64.957-.64 1.665V296h-1.89v-4.797c0-.72-.18-1.275-.53-1.665-.35-.396-.84-.594-1.48-.594-.63 0-1.16.204-1.59.612-.42.402-.64.957-.64 1.665V296h-1.89v-8.622h1.87v1.053c.59-.852 1.47-1.278 2.65-1.278.65 0 1.24.135 1.75.405s.92.648 1.23 1.134c.62-1.026 1.67-1.539 3.15-1.539z"/><use xlink:href="#M" y="173"/><use xlink:href="#N"/><use xlink:href="#G" x="146.254" y="33"/><path d="M947.08 155h-1.881v-1.035c-.66.84-1.563 1.26-2.709 1.26-1.218 0-2.241-.429-3.069-1.287s-1.242-1.941-1.242-3.249.414-2.391 1.242-3.249 1.851-1.287 3.069-1.287c1.14 0 2.043.423 2.709 1.269v-1.044h1.881V155zm-4.365-7.074c-.786 0-1.416.267-1.89.801-.474.528-.711 1.182-.711 1.962s.237 1.437.711 1.971c.474.528 1.104.792 1.89.792.768 0 1.392-.261 1.872-.783.486-.522.729-1.182.729-1.98s-.243-1.458-.729-1.98c-.48-.522-1.104-.783-1.872-.783zm9.208 7.074h-1.89v-12.96h1.89V155z"/><use xlink:href="#G" x="172.393" y="33"/><path d="M968.629 146.153c1.14 0 2.043.423 2.709 1.269v-5.382h1.881V155h-1.881v-1.035c-.66.84-1.563 1.26-2.709 1.26-1.218 0-2.241-.429-3.069-1.287s-1.242-1.941-1.242-3.249.414-2.391 1.242-3.249 1.851-1.287 3.069-1.287zm.225 1.773c-.786 0-1.416.267-1.89.801-.474.528-.711 1.182-.711 1.962s.237 1.437.711 1.971c.474.528 1.104.792 1.89.792.768 0 1.392-.261 1.872-.783.486-.522.729-1.182.729-1.98s-.243-1.458-.729-1.98c-.48-.522-1.104-.783-1.872-.783z"/><use xlink:href="#O"/><path d="M1000.84 146.153c1.22 0 2.25.429 3.07 1.287.83.858 1.25 1.941 1.25 3.249s-.42 2.391-1.25 3.249c-.82.858-1.85 1.287-3.07 1.287-1.13 0-2.03-.417-2.696-1.251V155h-1.881v-12.96h1.881v5.364c.666-.834 1.566-1.251 2.696-1.251zm-.22 1.773c-.769 0-1.396.261-1.882.783-.48.522-.72 1.182-.72 1.98s.24 1.458.72 1.98c.486.522 1.113.783 1.882.783.79 0 1.42-.264 1.89-.792.47-.534.71-1.191.71-1.971s-.24-1.434-.71-1.962c-.47-.534-1.1-.801-1.89-.801z"/><use xlink:href="#P"/><use xlink:href="#Q"/><use xlink:href="#R"/><use xlink:href="#S"/><path d="M1048.3 149.627h-1.22V155h-2.03v-12.6h2.03v5.301h1.24l4.74-5.301h2.63l-5.67 6.147 6.05 6.453h-2.76l-5.01-5.373z"/><use xlink:href="#T"/><path d="M1068.39 158.654h-2.09l3.08-5.427-3.82-6.849h2.12l2.77 4.95 2.67-4.95h2.07l-6.8 12.276z"/><use xlink:href="#N" y="170"/><use xlink:href="#G" x="146.254" y="203"/><path d="M947.08 325h-1.881v-1.035c-.66.84-1.563 1.26-2.709 1.26-1.218 0-2.241-.429-3.069-1.287s-1.242-1.941-1.242-3.249.414-2.391 1.242-3.249 1.851-1.287 3.069-1.287c1.14 0 2.043.423 2.709 1.269v-1.044h1.881V325zm-4.365-7.074c-.786 0-1.416.267-1.89.801-.474.528-.711 1.182-.711 1.962s.237 1.437.711 1.971c.474.528 1.104.792 1.89.792.768 0 1.392-.261 1.872-.783.486-.522.729-1.182.729-1.98s-.243-1.458-.729-1.98c-.48-.522-1.104-.783-1.872-.783zm9.208 7.074h-1.89v-12.96h1.89V325z"/><use xlink:href="#G" x="172.393" y="203"/><path d="M968.629 316.153c1.14 0 2.043.423 2.709 1.269v-5.382h1.881V325h-1.881v-1.035c-.66.84-1.563 1.26-2.709 1.26-1.218 0-2.241-.429-3.069-1.287s-1.242-1.941-1.242-3.249.414-2.391 1.242-3.249 1.851-1.287 3.069-1.287zm.225 1.773c-.786 0-1.416.267-1.89.801-.474.528-.711 1.182-.711 1.962s.237 1.437.711 1.971c.474.528 1.104.792 1.89.792.768 0 1.392-.261 1.872-.783.486-.522.729-1.182.729-1.98s-.243-1.458-.729-1.98c-.48-.522-1.104-.783-1.872-.783z"/><use xlink:href="#O" y="170"/><path d="M1000.84 316.153c1.22 0 2.25.429 3.07 1.287.83.858 1.25 1.941 1.25 3.249s-.42 2.391-1.25 3.249c-.82.858-1.85 1.287-3.07 1.287-1.13 0-2.03-.417-2.696-1.251V325h-1.881v-12.96h1.881v5.364c.666-.834 1.566-1.251 2.696-1.251zm-.22 1.773c-.769 0-1.396.261-1.882.783-.48.522-.72 1.182-.72 1.98s.24 1.458.72 1.98c.486.522 1.113.783 1.882.783.79 0 1.42-.264 1.89-.792.47-.534.71-1.191.71-1.971s-.24-1.434-.71-1.962c-.47-.534-1.1-.801-1.89-.801z"/><use xlink:href="#P" y="170"/><use xlink:href="#Q" y="170"/><use xlink:href="#R" y="170"/><use xlink:href="#S" y="170"/><path d="M1048.3 319.627h-1.22V325h-2.03v-12.6h2.03v5.301h1.24l4.74-5.301h2.63l-5.67 6.147 6.05 6.453h-2.76l-5.01-5.373z"/><use xlink:href="#T" y="170"/><path d="M1068.39 328.654h-2.09l3.08-5.427-3.82-6.849h2.12l2.77 4.95 2.67-4.95h2.07l-6.8 12.276zm-118.431 21.973h-1.215V356h-2.034v-12.6h2.034v5.301h1.242l4.734-5.301h2.628l-5.67 6.147 6.057 6.453h-2.763l-5.013-5.373zM973.096 356h-2.034v-10.368l-3.681 9.135h-2.142l-3.681-9.036V356h-2.034v-12.6h3.123l3.663 9 3.663-9h3.123V356zm11.679-9.81c-1.134-.72-2.313-1.08-3.537-1.08-.846 0-1.53.171-2.052.513s-.783.798-.783 1.368c0 .498.214.87.64 1.116.432.246 1.091.435 1.979.567l.873.117c2.706.384 4.059 1.539 4.059 3.465 0 .822-.234 1.539-.702 2.151s-1.08 1.068-1.836 1.368c-.75.3-1.587.45-2.511.45-.9 0-1.815-.147-2.745-.441s-1.704-.711-2.322-1.251l1.107-1.62c.438.402 1.027.735 1.765.999.738.258 1.467.387 2.187.387.846 0 1.547-.168 2.105-.504.558-.342.838-.795.838-1.359 0-.474-.235-.843-.703-1.107-.462-.264-1.173-.462-2.133-.594l-.981-.135a7.62 7.62 0 0 1-1.115-.234c-.342-.102-.678-.246-1.008-.432s-.613-.402-.847-.648c-.228-.252-.413-.561-.557-.927-.138-.372-.208-.786-.208-1.242 0-.816.225-1.524.675-2.124.45-.606 1.047-1.059 1.791-1.359s1.579-.45 2.503-.45c1.662 0 3.18.453 4.554 1.359l-1.036 1.647zm12.012 4.437h-1.215V356h-2.034v-12.6h2.034v5.301h1.242l4.736-5.301h2.63l-5.674 6.147 6.054 6.453h-2.76l-5.013-5.373z"/><use xlink:href="#T" x="-51.51" y="201"/><path d="M1016.88 359.654h-2.09l3.09-5.427-3.83-6.849h2.12l2.77 4.95 2.67-4.95h2.07l-6.8 12.276zm15.15-3.654H1030v-12.6h2.03V356z"/><use xlink:href="#U"/><use xlink:href="#N" x="59" y="229"/><use xlink:href="#G" x="205.254" y="262"/><path d="M1006.08 384h-1.88v-1.035c-.66.84-1.56 1.26-2.71 1.26a4.09 4.09 0 0 1-3.069-1.287c-.828-.858-1.242-1.941-1.242-3.249s.414-2.391 1.242-3.249a4.09 4.09 0 0 1 3.069-1.287c1.14 0 2.04.423 2.71 1.269v-1.044h1.88V384zm-4.36-7.074c-.79 0-1.42.267-1.895.801-.474.528-.711 1.182-.711 1.962s.237 1.437.711 1.971c.475.528 1.105.792 1.895.792.76 0 1.39-.261 1.87-.783s.73-1.182.73-1.98-.25-1.458-.73-1.98-1.11-.783-1.87-.783zm9.2 7.074h-1.89v-12.96h1.89V384zm6.62-8.847c1.2 0 2.19.42 2.94 1.26.76.834 1.14 1.923 1.14 3.267 0 .276-.02.51-.04.702h-6.37c.11.732.4 1.281.87 1.647s1.04.549 1.69.549c.91 0 1.74-.303 2.5-.909l.93 1.341c-.95.81-2.13 1.215-3.54 1.215-1.31 0-2.37-.414-3.19-1.242-.82-.834-1.22-1.932-1.22-3.294 0-1.35.39-2.442 1.18-3.276.8-.84 1.84-1.26 3.11-1.26zm-.04 1.674c-.65 0-1.16.192-1.55.576-.39.378-.64.894-.73 1.548h4.47c-.1-.672-.35-1.194-.73-1.566s-.86-.558-1.46-.558zm10.13-1.674c1.14 0 2.04.423 2.71 1.269v-5.382h1.88V384h-1.88v-1.035c-.66.84-1.57 1.26-2.71 1.26-1.22 0-2.24-.429-3.07-1.287s-1.24-1.941-1.24-3.249.41-2.391 1.24-3.249 1.85-1.287 3.07-1.287zm.22 1.773c-.78 0-1.41.267-1.89.801-.47.528-.71 1.182-.71 1.962s.24 1.437.71 1.971c.48.528 1.11.792 1.89.792.77 0 1.4-.261 1.88-.783s.72-1.182.72-1.98-.24-1.458-.72-1.98-1.11-.783-1.88-.783z"/><use xlink:href="#V"/><path d="M1066.64 384h-2.03v-10.368l-3.68 9.135h-2.14l-3.68-9.036V384h-2.04v-12.6h3.12l3.67 9 3.66-9h3.12V384zm11.68-9.81c-1.13-.72-2.31-1.08-3.53-1.08-.85 0-1.53.171-2.06.513-.52.342-.78.798-.78 1.368 0 .498.21.87.64 1.116s1.09.435 1.98.567l.87.117c2.71.384 4.06 1.539 4.06 3.465 0 .822-.23 1.539-.7 2.151s-1.08 1.068-1.84 1.368c-.75.3-1.58.45-2.51.45-.9 0-1.81-.147-2.74-.441s-1.71-.711-2.32-1.251l1.1-1.62c.44.402 1.03.735 1.77.999.73.258 1.46.387 2.18.387.85 0 1.55-.168 2.11-.504.56-.342.84-.795.84-1.359 0-.474-.24-.843-.71-1.107-.46-.264-1.17-.462-2.13-.594l-.98-.135c-.4-.054-.77-.132-1.12-.234-.34-.102-.67-.246-1-.432s-.62-.402-.85-.648c-.23-.252-.41-.561-.56-.927-.14-.372-.2-.786-.2-1.242 0-.816.22-1.524.67-2.124.45-.606 1.05-1.059 1.79-1.359.75-.3 1.58-.45 2.5-.45a8.11 8.11 0 0 1 4.56 1.359l-1.04 1.647z"/><use xlink:href="#U" x="51.64" y="28"/><path d="M1109.42 384h-1.88v-1.035c-.66.84-1.56 1.26-2.71 1.26-1.22 0-2.24-.429-3.07-1.287-.82-.858-1.24-1.941-1.24-3.249s.42-2.391 1.24-3.249c.83-.858 1.85-1.287 3.07-1.287 1.14 0 2.04.423 2.71 1.269v-1.044h1.88V384zm-4.36-7.074c-.79 0-1.42.267-1.89.801-.48.528-.71 1.182-.71 1.962s.23 1.437.71 1.971c.47.528 1.1.792 1.89.792.76 0 1.39-.261 1.87-.783.49-.522.73-1.182.73-1.98s-.24-1.458-.73-1.98c-.48-.522-1.11-.783-1.87-.783zm13.19.162h-3.3v3.753c0 .546.12.951.38 1.215.25.264.58.396.99.396.54 0 1.12-.195 1.73-.585l.75 1.503c-.85.57-1.73.855-2.65.855-.99 0-1.76-.276-2.29-.828s-.8-1.392-.8-2.52v-3.789h-1.72v-1.71h1.72v-2.61h1.89v2.61h3.3v1.71zm10.58 6.912h-1.88v-1.035c-.66.84-1.57 1.26-2.71 1.26-1.22 0-2.24-.429-3.07-1.287s-1.24-1.941-1.24-3.249.41-2.391 1.24-3.249 1.85-1.287 3.07-1.287c1.14 0 2.04.423 2.71 1.269v-1.044h1.88V384zm-4.37-7.074c-.78 0-1.41.267-1.89.801-.47.528-.71 1.182-.71 1.962s.24 1.437.71 1.971c.48.528 1.11.792 1.89.792.77 0 1.4-.261 1.88-.783s.72-1.182.72-1.98-.24-1.458-.72-1.98-1.11-.783-1.88-.783z"/><use xlink:href="#V" x="96.61"/><path d="M1152.57 375.153c1.21 0 2.19.42 2.95 1.26.75.834 1.13 1.923 1.13 3.267 0 .276-.01.51-.04.702h-6.37c.12.732.41 1.281.88 1.647s1.03.549 1.69.549c.9 0 1.73-.303 2.49-.909l.94 1.341c-.95.81-2.13 1.215-3.55 1.215-1.3 0-2.36-.414-3.19-1.242-.81-.834-1.22-1.932-1.22-3.294 0-1.35.4-2.442 1.19-3.276.8-.84 1.83-1.26 3.1-1.26zm-.03 1.674c-.65 0-1.17.192-1.56.576-.39.378-.63.894-.73 1.548h4.47c-.1-.672-.34-1.194-.72-1.566s-.87-.558-1.46-.558zm7.66 10.827h-2.08l3.08-5.427-3.82-6.849h2.11l2.78 4.95 2.67-4.95h2.07l-6.81 12.276zM779.282 294h-2.034v-10.368l-3.681 9.135h-2.142l-3.681-9.036V294h-2.034v-12.6h3.123l3.663 9 3.663-9h3.123V294z"/><use xlink:href="#G" y="172"/><use xlink:href="#H" y="172"/><use xlink:href="#W"/><path d="M815.555 285.153c1.14 0 2.043.423 2.709 1.269v-5.382h1.881V294h-1.881v-1.035c-.66.84-1.563 1.26-2.709 1.26-1.218 0-2.241-.429-3.069-1.287s-1.242-1.941-1.242-3.249.414-2.391 1.242-3.249 1.851-1.287 3.069-1.287zm.225 1.773c-.786 0-1.416.267-1.89.801-.474.528-.711 1.182-.711 1.962s.237 1.437.711 1.971c.474.528 1.104.792 1.89.792.768 0 1.392-.261 1.872-.783.486-.522.729-1.182.729-1.98s-.243-1.458-.729-1.98c-.48-.522-1.104-.783-1.872-.783z"/><use xlink:href="#W" x="22.465"/><use xlink:href="#J" y="172"/><use xlink:href="#W" x="41.871"/></g><defs ><path id="B" d="M642 88c0 3.866-14.775 7-33 7s-33-3.134-33-7m66 0c0-3.866-14.775-7-33-7s-33 3.134-33 7m66 0l-7.814 53.724c-.119.815-.553 1.555-1.276 1.947-9.479 5.133-37.252 5.069-47.385-.992-.677-.405-1.094-1.116-1.217-1.897L576 88"/><path id="C" d="M642 264c0 3.866-14.775 7-33 7s-33-3.134-33-7m66 0c0-3.866-14.775-7-33-7s-33 3.134-33 7m66 0l-7.814 53.724c-.119.815-.553 1.555-1.276 1.947-9.479 5.133-37.252 5.069-47.385-.992-.677-.405-1.094-1.117-1.217-1.897L576 264"/><path id="D" d="M216.586 94.1c-1.26-.8-2.57-1.2-3.93-1.2-.94 0-1.7.19-2.28.57s-.87.887-.87 1.52c0 .553.236.967.71 1.24.48.273 1.213.483 2.2.63l.97.13c3.006.427 4.51 1.71 4.51 3.85 0 .913-.26 1.71-.78 2.39s-1.2 1.187-2.04 1.52c-.834.333-1.764.5-2.79.5a10.07 10.07 0 0 1-3.05-.49c-1.034-.327-1.894-.79-2.58-1.39l1.23-1.8c.486.447 1.14.817 1.96 1.11.82.287 1.63.43 2.43.43.94 0 1.72-.187 2.34-.56.62-.38.93-.883.93-1.51 0-.527-.26-.937-.78-1.23-.514-.293-1.304-.513-2.37-.66l-1.09-.15c-.44-.06-.854-.147-1.24-.26-.38-.113-.754-.273-1.12-.48a3.98 3.98 0 0 1-.94-.72c-.254-.28-.46-.623-.62-1.03-.154-.413-.23-.873-.23-1.38 0-.907.25-1.693.75-2.36.5-.673 1.163-1.177 1.99-1.51s1.753-.5 2.78-.5a9 9 0 0 1 5.06 1.51l-1.15 1.83z"/><path id="E" d="M203.07 307.1c-1.26-.8-2.57-1.2-3.93-1.2-.94 0-1.7.19-2.28.57s-.87.887-.87 1.52a1.34 1.34 0 0 0 .71 1.24c.48.273 1.213.483 2.2.63l.97.13c3.007.427 4.51 1.71 4.51 3.85 0 .913-.26 1.71-.78 2.39s-1.2 1.187-2.04 1.52c-.833.333-1.763.5-2.79.5a10.07 10.07 0 0 1-3.05-.49c-1.033-.327-1.893-.79-2.58-1.39l1.23-1.8c.487.447 1.14.817 1.96 1.11.82.287 1.63.43 2.43.43.94 0 1.72-.187 2.34-.56.62-.38.93-.883.93-1.51 0-.527-.26-.937-.78-1.23-.513-.293-1.303-.513-2.37-.66l-1.09-.15c-.44-.06-.853-.147-1.24-.26-.38-.113-.753-.273-1.12-.48s-.68-.447-.94-.72a3.34 3.34 0 0 1-.62-1.03c-.153-.413-.23-.873-.23-1.38 0-.907.25-1.693.75-2.36.5-.673 1.163-1.177 1.99-1.51s1.753-.5 2.78-.5c1.847 0 3.533.503 5.06 1.51l-1.15 1.83z"/><path id="F" d="M641.302 55.17c1.34 0 2.43.467 3.27 1.4.84.927 1.26 2.137 1.26 3.63 0 .307-.013.567-.04.78h-7.08c.127.813.45 1.423.97 1.83.527.407 1.153.61 1.88.61 1.007 0 1.93-.337 2.77-1.01l1.04 1.49c-1.053.9-2.367 1.35-3.94 1.35-1.447 0-2.627-.46-3.54-1.38-.907-.927-1.36-2.147-1.36-3.66 0-1.5.44-2.713 1.32-3.64.887-.933 2.037-1.4 3.45-1.4zm-.04 1.86c-.72 0-1.297.213-1.73.64-.433.42-.703.993-.81 1.72h4.97c-.113-.747-.383-1.327-.81-1.74-.42-.413-.96-.62-1.62-.62z"/><path id="G" d="M786.146 113.153c1.206 0 2.187.42 2.943 1.26.756.834 1.134 1.923 1.134 3.267 0 .276-.012.51-.036.702h-6.372c.114.732.405 1.281.873 1.647.474.366 1.038.549 1.692.549.906 0 1.737-.303 2.493-.909l.936 1.341c-.948.81-2.13 1.215-3.546 1.215-1.302 0-2.364-.414-3.186-1.242-.816-.834-1.224-1.932-1.224-3.294 0-1.35.396-2.442 1.188-3.276.798-.84 1.833-1.26 3.105-1.26zm-.036 1.674c-.648 0-1.167.192-1.557.576-.39.378-.633.894-.729 1.548h4.473c-.102-.672-.345-1.194-.729-1.566-.378-.372-.864-.558-1.458-.558z"/><path id="H" d="M798.335 115.088h-3.303v3.753c0 .546.126.951.378 1.215s.582.396.99.396c.54 0 1.119-.195 1.737-.585l.747 1.503c-.846.57-1.728.855-2.646.855-.996 0-1.761-.276-2.295-.828s-.801-1.392-.801-2.52v-3.789h-1.719v-1.71h1.719v-2.61h1.89v2.61h3.303v1.71z"/><path id="I" d="M808.912 122h-1.881v-1.035c-.66.84-1.563 1.26-2.709 1.26-1.218 0-2.241-.429-3.069-1.287s-1.242-1.941-1.242-3.249.414-2.391 1.242-3.249 1.851-1.287 3.069-1.287c1.14 0 2.043.423 2.709 1.269v-1.044h1.881V122zm-4.365-7.074c-.786 0-1.416.267-1.89.801-.474.528-.711 1.182-.711 1.962s.237 1.437.711 1.971c.474.528 1.104.792 1.89.792.768 0 1.392-.261 1.872-.783.486-.522.729-1.182.729-1.98s-.243-1.458-.729-1.98c-.48-.522-1.104-.783-1.872-.783z"/><path id="J" d="M840.207 115.088h-3.303v3.753c0 .546.126.951.378 1.215s.582.396.99.396c.54 0 1.119-.195 1.737-.585l.747 1.503c-.846.57-1.728.855-2.646.855-.996 0-1.762-.276-2.296-.828s-.8-1.392-.8-2.52v-3.789h-1.719v-1.71h1.719v-2.61h1.89v2.61h3.303v1.71z"/><path id="K" d="M963.483 85.747c.708-.396 1.5-.594 2.376-.594s1.668.198 2.376.594a4.26 4.26 0 0 1 1.665 1.629c.402.69.603 1.461.603 2.313s-.201 1.626-.603 2.322c-.402.69-.957 1.233-1.665 1.629-.708.39-1.5.585-2.376.585s-1.668-.198-2.376-.594-1.263-.939-1.665-1.629c-.396-.69-.594-1.461-.594-2.313s.198-1.623.594-2.313c.402-.69.957-1.233 1.665-1.629zm4.311 1.953c-.516-.516-1.161-.774-1.935-.774s-1.419.258-1.935.774c-.51.516-.765 1.179-.765 1.989s.255 1.473.765 1.989c.516.516 1.161.774 1.935.774s1.419-.258 1.935-.774.774-1.179.774-1.989-.258-1.473-.774-1.989z"/><path id="L" d="M937.71 114.153c1.254 0 2.211.42 2.871 1.26v-1.035h1.89v8.019c0 1.356-.411 2.424-1.233 3.204s-1.953 1.17-3.393 1.17a7.57 7.57 0 0 1-1.971-.261c-.648-.174-1.194-.42-1.638-.738l.684-1.593c.942.582 1.917.873 2.925.873.882 0 1.557-.228 2.025-.684.474-.45.711-1.08.711-1.89v-.693c-.66.84-1.617 1.26-2.871 1.26-.498 0-.984-.102-1.458-.306a4.37 4.37 0 0 1-1.278-.864c-.378-.372-.684-.843-.918-1.413a4.97 4.97 0 0 1-.342-1.863 4.97 4.97 0 0 1 .342-1.863c.234-.57.54-1.038.918-1.404.378-.372.804-.66 1.278-.864.474-.21.96-.315 1.458-.315zm.486 1.773c-.768 0-1.386.258-1.854.774-.462.51-.693 1.143-.693 1.899 0 .744.231 1.377.693 1.899.468.516 1.086.774 1.854.774.75 0 1.362-.252 1.836-.756.474-.51.711-1.149.711-1.917s-.237-1.404-.711-1.908c-.474-.51-1.086-.765-1.836-.765z"/><path id="M" d="M1056.15 114.153c1.21 0 2.19.42 2.94 1.26.76.834 1.14 1.923 1.14 3.267 0 .276-.02.51-.04.702h-6.37c.11.732.4 1.281.87 1.647.48.366 1.04.549 1.69.549.91 0 1.74-.303 2.5-.909l.93 1.341c-.95.81-2.13 1.215-3.54 1.215-1.31 0-2.37-.414-3.19-1.242-.82-.834-1.22-1.932-1.22-3.294 0-1.35.39-2.442 1.18-3.276.8-.84 1.84-1.26 3.11-1.26zm-.04 1.674c-.64 0-1.16.192-1.55.576-.39.378-.64.894-.73 1.548h4.47c-.1-.672-.34-1.194-.73-1.566-.38-.372-.86-.558-1.46-.558z"/><path id="N" d="M924.963 145.19c-1.134-.72-2.313-1.08-3.537-1.08-.846 0-1.53.171-2.052.513s-.783.798-.783 1.368c0 .498.213.87.639 1.116.432.246 1.092.435 1.98.567l.873.117c2.706.384 4.059 1.539 4.059 3.465 0 .822-.234 1.539-.702 2.151s-1.08 1.068-1.836 1.368c-.75.3-1.587.45-2.511.45-.9 0-1.815-.147-2.745-.441s-1.704-.711-2.322-1.251l1.107-1.62c.438.402 1.026.735 1.764.999.738.258 1.467.387 2.187.387.846 0 1.548-.168 2.106-.504.558-.342.837-.795.837-1.359 0-.474-.234-.843-.702-1.107-.462-.264-1.173-.462-2.133-.594l-.981-.135c-.396-.054-.768-.132-1.116-.234-.342-.102-.678-.246-1.008-.432s-.612-.402-.846-.648c-.228-.252-.414-.561-.558-.927-.138-.372-.207-.786-.207-1.242 0-.816.225-1.524.675-2.124.45-.606 1.047-1.059 1.791-1.359s1.578-.45 2.502-.45c1.662 0 3.18.453 4.554 1.359l-1.035 1.647z"/><path id="O" d="M983.75 143.012c1.008-.564 2.148-.846 3.42-.846s2.409.282 3.411.846a5.93 5.93 0 0 1 2.349 2.331c.558.996.837 2.115.837 3.357s-.279 2.361-.837 3.357a5.99 5.99 0 0 1-2.349 2.34c-1.002.558-2.139.837-3.411.837s-2.412-.279-3.42-.837a6.01 6.01 0 0 1-2.34-2.34c-.558-.996-.837-2.115-.837-3.357s.279-2.361.837-3.357 1.338-1.773 2.34-2.331zm6.615 2.385c-.84-.852-1.905-1.278-3.195-1.278s-2.358.426-3.204 1.278c-.84.852-1.26 1.953-1.26 3.303s.42 2.451 1.26 3.303c.846.852 1.914 1.278 3.204 1.278s2.355-.426 3.195-1.278c.846-.852 1.269-1.953 1.269-3.303s-.423-2.451-1.269-3.303z"/><path id="P" d="M1009.42 156.062c0 .864-.23 1.53-.69 1.998-.46.474-1.08.711-1.84.711-.51 0-.94-.087-1.3-.261l.44-1.638a2 2 0 0 0 .69.126c.24 0 .44-.084.59-.252.15-.162.22-.42.22-.774v-9.594h1.89v9.684zm-.96-13.995c.37 0 .69.129.94.387a1.28 1.28 0 0 1 .39.945 1.26 1.26 0 0 1-.39.945 1.28 1.28 0 0 1-.94.369 1.32 1.32 0 0 1-.95-.369c-.24-.252-.37-.567-.37-.945s.13-.693.37-.945c.26-.258.57-.387.95-.387z"/><path id="Q" d="M1016.05 146.153c1.21 0 2.19.42 2.95 1.26.75.834 1.13 1.923 1.13 3.267l-.03.702h-6.38c.12.732.41 1.281.88 1.647s1.03.549 1.69.549c.9 0 1.74-.303 2.49-.909l.94 1.341c-.95.81-2.13 1.215-3.55 1.215-1.3 0-2.36-.414-3.18-1.242-.82-.834-1.23-1.932-1.23-3.294 0-1.35.4-2.442 1.19-3.276.8-.84 1.83-1.26 3.1-1.26zm-.03 1.674c-.65 0-1.17.192-1.56.576-.39.378-.63.894-.73 1.548h4.48c-.11-.672-.35-1.194-.73-1.566s-.87-.558-1.46-.558z"/><path id="R" d="M1026.37 146.153c.65 0 1.26.117 1.82.351a3.63 3.63 0 0 1 1.4 1.026l-1.2 1.287c-.63-.594-1.32-.891-2.07-.891-.74 0-1.35.258-1.83.774s-.72 1.179-.72 1.989.24 1.473.72 1.989 1.09.774 1.83.774c.76 0 1.47-.3 2.11-.9l1.16 1.296c-.8.918-1.87 1.377-3.22 1.377s-2.45-.429-3.29-1.287c-.83-.858-1.25-1.941-1.25-3.249s.42-2.391 1.25-3.249c.84-.858 1.94-1.287 3.29-1.287z"/><path id="S" d="M1037.67 148.088h-3.31v3.753c0 .546.13.951.38 1.215s.58.396.99.396c.54 0 1.12-.195 1.74-.585l.74 1.503c-.84.57-1.72.855-2.64.855-1 0-1.76-.276-2.3-.828-.53-.552-.8-1.392-.8-2.52v-3.789h-1.72v-1.71h1.72v-2.61h1.89v2.61h3.31v1.71z"/><path id="T" d="M1060.76 146.153c1.2 0 2.18.42 2.94 1.26.75.834 1.13 1.923 1.13 3.267l-.03.702h-6.38c.12.732.41 1.281.88 1.647s1.04.549 1.69.549c.91 0 1.74-.303 2.49-.909l.94 1.341c-.95.81-2.13 1.215-3.55 1.215-1.3 0-2.36-.414-3.18-1.242-.82-.834-1.23-1.932-1.23-3.294 0-1.35.4-2.442 1.19-3.276.8-.84 1.83-1.26 3.11-1.26zm-.04 1.674c-.65 0-1.17.192-1.56.576-.39.378-.63.894-.73 1.548h4.48c-.11-.672-.35-1.194-.73-1.566s-.87-.558-1.46-.558z"/><path id="U" d="M1040.45 343.4c1.97 0 3.55.576 4.74 1.728 1.2 1.152 1.8 2.676 1.8 4.572s-.6 3.42-1.8 4.572c-1.19 1.152-2.77 1.728-4.74 1.728h-5.01v-12.6h5.01zm-2.97 1.926v8.748h2.97c1.43 0 2.52-.399 3.27-1.197.76-.798 1.14-1.857 1.14-3.177 0-1.326-.38-2.385-1.14-3.177-.75-.798-1.84-1.197-3.27-1.197h-2.97z"/><path id="V" d="M1043.51 378.627h-1.22V384h-2.03v-12.6h2.03v5.301h1.24l4.74-5.301h2.62l-5.67 6.147 6.06 6.453h-2.76l-5.01-5.373z"/><path id="W" d="M808.912 294h-1.881v-1.035c-.66.84-1.563 1.26-2.709 1.26-1.218 0-2.241-.429-3.069-1.287s-1.242-1.941-1.242-3.249.414-2.391 1.242-3.249 1.851-1.287 3.069-1.287c1.14 0 2.043.423 2.709 1.269v-1.044h1.881V294zm-4.365-7.074c-.786 0-1.416.267-1.89.801-.474.528-.711 1.182-.711 1.962s.237 1.437.711 1.971c.474.528 1.104.792 1.89.792.768 0 1.392-.261 1.872-.783.486-.522.729-1.182.729-1.98s-.243-1.458-.729-1.98c-.48-.522-1.104-.783-1.872-.783z"/></defs></svg>